<?xml version="1.0" encoding="utf-8"?>
<!-- Generator: Adobe Illustrator 27.9.0, SVG Export Plug-In . SVG Version: 6.00 Build 0)  -->
<svg version="1.1" id="Layer_1" xmlns="http://www.w3.org/2000/svg" xmlns:xlink="http://www.w3.org/1999/xlink" x="0px" y="0px"
	 viewBox="0 0 490.7 187.4" style="enable-background:new 0 0 490.7 187.4;" xml:space="preserve">
<style type="text/css">
	.st0{fill:#FFFFFF;}
	.st1{fill:#FFFFFF;stroke:#FFFFFF;stroke-width:0.75;stroke-miterlimit:10;}
</style>
<g>
	<path class="st0" d="M69.3,37.2h4.5V15.4h8.1v-3.8H61.2v3.8h8.1V37.2z M91,11.6h-4.8l-9.8,25.6H81l2.4-6.8h10.2l2.4,6.8h4.4
		l0.3-0.4L91,11.6z M84.7,27l3.9-11h0.1l3.8,11H84.7z M105.6,37.2l6.5-9.8l6.4,9.8h5.4l-9.1-13.3l8.5-12.3h-5l-6,9l-5.8-9h-5.3
		l8.5,12.3l-8.8,12.9l0.1,0.4L105.6,37.2z M170.7,8.1l-0.1-0.4l-0.3,0.4H170.7z M133.5,37.2h4.5V25.8h11.6v-3.7H138v-6.7h13.2v-3.8
		h-17.7V37.2z M163.4,11c-7.7,0-12.3,6.1-12.3,13.4s4.6,13.4,12.3,13.4s12.3-6.1,12.3-13.4S171.1,11,163.4,11z M163.4,34.1
		c-5.5,0-7.8-4.8-7.8-9.7s2.3-9.7,7.8-9.7s7.8,4.8,7.8,9.7S168.9,34.1,163.4,34.1z M193.9,26.5c0,3.4-0.2,7.4-6,7.4s-6-4-6-7.4V11.6
		h-4.5V28c0,6.6,4.2,9.8,10.5,9.8s10.5-3.2,10.5-9.8V11.6h-4.5V26.5z M217.6,30.4L217.6,30.4l-11.7-18.8h-4.7v25.6h4.3V18.4h0.1
		l11.6,18.8h4.7V11.6h-4.3L217.6,30.4L217.6,30.4z M236.4,11.6h-10.6v25.6h10.6c7.9,0,11.3-5.7,11.3-12.8S244.2,11.6,236.4,11.6z
		 M234.7,33.5h-4.4V15.3h4.4c7,0,8.5,4,8.5,9.1S241.7,33.5,234.7,33.5z M257.1,11.6l-9.8,25.6h4.6l2.4-6.8h10.2l2.4,6.8h4.8
		l-9.9-25.6H257.1z M255.5,27l3.9-11h0.1l3.8,11H255.5z M267.4,15.4h8.1v21.8h4.5V15.4h8.1v-3.8h-20.7
		C267.4,11.6,267.4,15.4,267.4,15.4z M289.6,11.6h4.5v25.6h-4.5V11.6z M308.3,11c-7.7,0-12.3,6.1-12.3,13.4s4.6,13.4,12.3,13.4
		s12.3-6.1,12.3-13.4S316,11,308.3,11L308.3,11z M308.3,34.1c-5.5,0-7.8-4.8-7.8-9.7s2.3-9.7,7.8-9.7s7.8,4.8,7.8,9.7
		S313.8,34.1,308.3,34.1z M338.8,11.6v18.9h-0.1l-11.6-18.9h-4.7v25.6h4.3V18.4h0.1l11.6,18.8h4.7V11.6H338.8z M41.9,19.7
		c-0.6,0-0.7,0.6-0.7,1.1V21h1.4C42.5,20.1,42.4,19.7,41.9,19.7z M32.2,29.3c0.6,0,0.8-0.4,0.8-1.3s-0.1-1.4-0.8-1.4
		s-0.8,0.6-0.8,1.4S31.6,29.3,32.2,29.3z M18.9,39.1l1,0.2l0.3,0.1v9.5c0.3,0,1.2,0.3,1.5,0.3v-9.5l0.9,0.2l0.9,0.2l0.6,0.2v9h0.2
		c0.4,0.1,0.7,0.1,1.1,0v-8.7l0.9,0.2l0.9,0.2H28v8.1c0.4-0.1,0.8-0.2,1.2-0.2v-7.6l0.9,0.2l0.9,0.2l0.6,0.2v6.5l1.2-0.4v-5.9
		l0.9,0.2l1,0.2l0.6,0.2v4.2l1.2-0.4V43l0.9,0.2l0.9,0.2l0.6,0.2L39,45c0.9-0.6,1.7-1.2,2.5-1.9l-24-5.2l-3.4,1.3l-4.3-0.7l-4.7,1.8
		l0.7,0.8l3.6-1.4v4.6c0.3,0.2,0.9,0.5,1.2,0.7v-5.3l2.9,0.5v6.6l1.4,0.7V40l2.1-0.9v9l1.4,0.4V39L18.9,39.1z"/>
	<path class="st0" d="M24.6,0C10.9,0.1-0.1,11.3,0,25c0,0,0,0,0,0.1c0,4.9,1.5,9.7,4.3,13.7L5,38.4v-2.7c0-0.5,0.5-0.5,0.5-0.2v2.1
		c0,0.5,0.5,0.6,0.5,0.1v-3.1c0-0.5,1.7-1.2,1.7-0.9V37c0,0.5,0.7,0.2,0.7-0.2v-3.5c0-0.3,2.1-0.9,2.1-0.6V36c0,0.3,1,0.1,1-0.2
		v-3.3c0.8-0.2,1.7-0.3,2.6-0.2V36c0,0.3,1,0.2,1-0.1v-3.3c0.9-0.1,1.8-0.1,2.6,0.2v3c0,0.3,0.8,0.5,0.8,0V33
		c0.1-0.2,1.6,0.5,1.9,0.2c0,0,0.2-0.5-1-0.9c-6.4-1.7-10.9,0-12.8,1c-0.3,0.2-0.7,0.4-1,0.5c-0.4,0.2-0.7,0.5-0.7,0.4
		c0.2-0.9-0.1-0.9,1.4-1.7c4-2.1,9-2.3,13.8-1.1c1.1,0.3,1.3,0.1,1.3-0.2s0-0.5-0.8-0.8c-1.6-0.5-8.7-2.2-15,1.3
		c-0.2,0.1-0.2-0.3,0-0.6c0.3-0.3,0.7-0.5,1.1-0.7v-0.3l-0.4-0.4v-0.3c3.6-2,9.7-2.3,12.7-1.4c1,0.3,1.8,0.4,1.8,0.2
		c0-0.5-1.8-1-2.3-1.2c-3.7-0.7-7.5-0.4-11,0.9c-0.5,0.2-0.8,0.3-0.8,0.2c0.1-0.3,0.3-0.6,0.5-0.8c0.4-0.2,0.6-0.6,0.6-1
		c0-0.2,0-0.5,0.1-0.7c1-2.1,2.5-3.8,4.5-5c0.2-0.5,0.5-1,0.9-1.4V18c-0.1-0.3-0.2-0.6-0.4-0.8c-0.1-0.1-0.1-0.3,0-0.4
		c0.7-0.9,1.2-1.4,1.2-1.7s0.1-2.9,0.4-2.9s0.4,2.5,0.4,3s0.7,0.9,1.2,1.6c0.1,0.1,0,0.4,0,0.4c-0.2,0.2-0.3,0.5-0.4,0.8v1.3
		c0.4,0.4,0.7,0.9,0.9,1.4c2.3,1.4,4,3.7,4.6,6.4c0.8,0.6,1.4,1.3,1.8,2.2v0.6c-0.1,0.3-0.2,0.5-0.5,0.7v0.7c0.8,0.5,1.5,1.1,2,1.9
		c0,0.4,0,0.8-0.1,1.2c0,0-0.3,0.6-0.5,1.1v1.7l19,4.5c9.3-10.1,8.5-25.8-1.6-35.1l0,0C36.8,2.3,30.8,0,24.6,0z"/>
</g>
<g>
	<path class="st0" d="M1.9,122.3c0-10.5,5.5-16.4,11.2-22.3c5-5,9.2-9.4,9.2-16.1c0-5.5-2.1-10.9-9.2-10.9c-7.8,0-9.7,5.5-9.7,10.8
		v3H1.9v-2.9c0-6.1,2.4-12.4,11.2-12.4c8.2,0,10.9,6.1,10.9,12.4c0,7.2-4.3,12-9.5,17.2c-5.7,5.6-11,11.2-11,20.9v1.1h20.2v1.6H1.9
		V122.3z"/>
	<path class="st0" d="M30.3,113V83.9c0-8.2,4-12.4,11.1-12.4c7.3,0,11.2,4.3,11.2,12.4V113c0,8.2-4,12.4-11.2,12.4
		C34.3,125.4,30.3,121.1,30.3,113z M51,113V83.8c0-7.2-3.3-10.8-9.6-10.8c-6.1,0-9.4,3.6-9.4,10.8V113c0,7.2,3.3,10.8,9.4,10.8
		C47.7,123.8,51,120.2,51,113z"/>
	<path class="st0" d="M59.2,122.3c0-10.5,5.5-16.4,11.2-22.3c5-5,9.2-9.4,9.2-16.1c0-5.5-2.1-10.9-9.2-10.9c-7.8,0-9.7,5.5-9.7,10.8
		v3h-1.6v-2.9c0-6.1,2.4-12.4,11.2-12.4c8.2,0,10.9,6.1,10.9,12.4c0,7.2-4.3,12-9.5,17.2c-5.7,5.6-10.9,11.2-10.9,20.8v1.1H81v1.6
		H59.2V122.3z"/>
	<path class="st0" d="M126.1,112.2v-3h7.8v3.6c0,3.8,1.6,5.1,4.3,5.1c2.6,0,4.3-1.4,4.3-5.2c0-4.3-1.8-7-7.2-11.8
		c-6.9-6.1-9.2-10.4-9.2-16.4c0-8.2,4.3-13,12.3-13s12,4.8,12,13.2v2.2h-7.8v-2.7c0-3.8-1.5-5.2-4.1-5.2s-4.2,1.4-4.2,5
		c0,3.8,1.9,6.5,7.3,11.2c6.9,6.1,9.1,10.3,9.1,16.9c0,8.5-4.4,13.3-12.4,13.3S126.1,120.6,126.1,112.2z"/>
	<path class="st0" d="M161.7,79.7h-8.6v-7.5h25.5v7.5H170v45h-8.2L161.7,79.7L161.7,79.7z"/>
	<path class="st0" d="M195.5,114.4H186l-1.4,10.3H177l8.5-52.5h11.2l8.5,52.5H197L195.5,114.4z M194.5,107.3l-3.7-26.5l-3.7,26.5
		H194.5z"/>
	<path class="st0" d="M212.2,79.7h-8.6v-7.5H229v7.5h-8.6v45h-8.2V79.7z"/>
	<path class="st0" d="M233,72.2h22.5v7.5h-14.2v13.9h11.3v7.5h-11.3v16.1h14.2v7.5H233V72.2z"/>
	<path class="st0" d="M271.9,72.2h12.5c8.5,0,12.2,4,12.2,12.1v2.1c0,5.4-1.7,8.8-5.3,10.3v0.1c4.4,1.5,6.1,5.4,6.1,10.9v4.5
		c0,8.1-4.3,12.4-12.5,12.4h-13L271.9,72.2L271.9,72.2z M283.4,93.5c3.1,0,5-1.4,5-5.5v-2.9c0-3.8-1.3-5.4-4.2-5.4h-4v13.9
		L283.4,93.5L283.4,93.5z M284.9,117.2c2.8,0,4.3-1.3,4.3-5.2v-4.6c0-4.9-1.6-6.4-5.3-6.4h-3.7v16.1L284.9,117.2L284.9,117.2z"/>
	<path class="st0" d="M301.9,112.2v-40h8.2v40.6c0,3.8,1.6,5.1,4.2,5.1s4.2-1.4,4.2-5.1V72.2h7.9v40c0,8.4-4.2,13.2-12.3,13.2
		S301.9,120.6,301.9,112.2z"/>
	<path class="st0" d="M331,112.2v-3h7.8v3.6c0,3.8,1.6,5.1,4.3,5.1s4.3-1.4,4.3-5.2c0-4.3-1.8-7-7.2-11.8
		c-6.9-6.1-9.2-10.4-9.2-16.4c0-8.2,4.3-13,12.3-13s12,4.8,12,13.2v2.2h-7.8v-2.7c0-3.8-1.5-5.2-4.1-5.2s-4.2,1.4-4.2,5
		c0,3.8,1.9,6.5,7.3,11.2c6.9,6.1,9.1,10.3,9.1,16.9c0,8.5-4.3,13.3-12.4,13.3S331,120.6,331,112.2z"/>
	<path class="st0" d="M360.2,72.2h8.2v52.5h-8.2V72.2z"/>
	<path class="st0" d="M374.6,72.2h10.2l8.3,31.4V72.2h7.4v52.5h-8.3L382,86.3v38.3h-7.3V72.2H374.6z"/>
	<path class="st0" d="M406.6,72.2h22.5v7.5h-14.2v13.9h11.3v7.5h-11.3v16.1h14.2v7.5h-22.5V72.2z"/>
	<path class="st0" d="M432.3,112.2v-3h7.8v3.6c0,3.8,1.7,5.1,4.3,5.1s4.3-1.4,4.3-5.2c0-4.3-1.8-7-7.2-11.8
		c-6.9-6.1-9.2-10.4-9.2-16.4c0-8.2,4.3-13,12.3-13s12,4.8,12,13.2v2.2h-7.8v-2.7c0-3.8-1.5-5.2-4.1-5.2s-4.2,1.4-4.2,5
		c0,3.8,1.9,6.5,7.3,11.2c6.9,6.1,9.1,10.3,9.1,16.9c0,8.5-4.3,13.3-12.4,13.3S432.3,120.6,432.3,112.2z"/>
	<path class="st0" d="M460,112.2v-3h7.8v3.6c0,3.8,1.7,5.1,4.3,5.1s4.3-1.4,4.3-5.2c0-4.3-1.8-7-7.2-11.8
		c-6.9-6.1-9.2-10.4-9.2-16.4c0-8.2,4.3-13,12.3-13s12,4.8,12,13.2v2.2h-7.8v-2.7c0-3.8-1.5-5.2-4.1-5.2s-4.2,1.4-4.2,5
		c0,3.8,1.9,6.5,7.3,11.2c6.9,6.1,9.1,10.3,9.1,16.9c0,8.5-4.3,13.3-12.4,13.3S460,120.6,460,112.2z"/>
	<path class="st0" d="M8.6,141.7H0v-7.5h25.5v7.5h-8.6v45H8.6V141.7z"/>
	<path class="st0" d="M42.4,176.4h-9.5l-1.4,10.3h-7.6l8.5-52.5h11.2l8.5,52.5h-8.2L42.4,176.4z M41.4,169.3l-3.7-26.5L34,169.3
		H41.4z"/>
	<path class="st0" d="M63.4,159.8l-9.1-25.6H63l5.6,17.2l5.8-17.2h7.8l-9.1,25.6l9.5,26.8h-8.7l-6.1-18.5l-6.2,18.5h-7.8L63.4,159.8
		z"/>
	<path class="st0" d="M97.9,174.5v-28.2c0-8.1,4.2-12.9,12.1-12.9s12.1,4.8,12.1,12.9v5.5h-7.8v-6.1c0-3.4-1.6-4.9-4.1-4.9
		s-4.1,1.4-4.1,4.9V175c0,3.4,1.6,4.8,4.1,4.8s4.1-1.4,4.1-4.8v-7.6h7.8v7c0,8.1-4.2,12.9-12.1,12.9S97.9,182.6,97.9,174.5z"/>
	<path class="st0" d="M127,134.2h8.2v45h13.6v7.5H127V134.2z"/>
	<path class="st0" d="M152.8,134.2h8.2v52.5h-8.2V134.2z"/>
	<path class="st0" d="M167.2,134.2h11.6l5.5,38.1l5.5-38.1h11.6v52.5h-7.8V147l-6.1,39.7h-6.9l-6.1-39.7v39.7h-7.2v-52.5H167.2z"/>
	<path class="st0" d="M223.9,176.4h-9.5l-1.4,10.3h-7.6l8.5-52.5h11.2l8.5,52.5h-8.2L223.9,176.4z M222.9,169.3l-3.7-26.5l-3.7,26.5
		H222.9z"/>
	<path class="st0" d="M240.6,141.7H232v-7.5h25.5v7.5h-8.6v45h-8.2L240.6,141.7L240.6,141.7z"/>
	<path class="st0" d="M261.4,134.2h22.5v7.5h-14.2v13.9H281v7.5h-11.3v16.1h14.2v7.5h-22.5L261.4,134.2L261.4,134.2z"/>
	<path class="st0" d="M300.4,134.2h8.2v52.5h-8.2V134.2z"/>
	<path class="st0" d="M314.8,134.2H325l8.3,31.4v-31.4h7.3v52.5h-8.3l-10.2-38.3v38.3h-7.3V134.2z"/>
	<path class="st0" d="M346.8,134.2h12.6c8.2,0,12.3,4.6,12.3,13v26.5c0,8.4-4,13-12.3,13h-12.6V134.2z M359.2,179.2
		c2.6,0,4.2-1.4,4.2-5.1v-27.3c0-3.8-1.6-5.1-4.2-5.1H355v37.5L359.2,179.2L359.2,179.2z"/>
	<path class="st0" d="M377.2,134.2h22.5v7.5h-14.2v13.9h11.3v7.5h-11.3v16.1h14.2v7.5h-22.5V134.2z"/>
	<path class="st0" d="M411.7,159.8l-9.1-25.6h8.7l5.6,17.2l5.8-17.2h7.8l-9.1,25.6l9.5,26.8h-8.7l-6.1-18.5l-6.2,18.5h-7.8
		L411.7,159.8z"/>
</g>
<g>
	<g>
		<path class="st0" d="M69.3,37.3h4.5V15.5h8.1v-3.8H61.2v3.8h8.1V37.3z M91,11.7h-4.8l-9.8,25.6H81l2.4-6.8h10.2l2.4,6.8h4.4
			l0.3-0.4L91,11.7z M84.7,27.1l3.9-11h0.1l3.8,11H84.7z M105.6,37.3l6.5-9.8l6.4,9.8h5.4L114.8,24l8.5-12.3h-5l-6,9l-5.8-9h-5.3
			l8.5,12.3l-8.8,12.9l0.1,0.4L105.6,37.3z M170.7,8.2l-0.1-0.4l-0.3,0.4H170.7z M133.5,37.3h4.5V25.9h11.6v-3.7H138v-6.7h13.2v-3.8
			h-17.7V37.3z M163.4,11.1c-7.7,0-12.3,6.1-12.3,13.4s4.6,13.4,12.3,13.4s12.3-6.1,12.3-13.4S171.1,11.1,163.4,11.1z M163.4,34.2
			c-5.5,0-7.8-4.8-7.8-9.7s2.3-9.7,7.8-9.7s7.8,4.8,7.8,9.7S168.9,34.2,163.4,34.2z M193.9,26.6c0,3.4-0.2,7.4-6,7.4s-6-4-6-7.4
			V11.7h-4.5v16.4c0,6.6,4.2,9.8,10.5,9.8s10.5-3.2,10.5-9.8V11.7h-4.5V26.6z M217.6,30.5L217.6,30.5l-11.7-18.8h-4.7v25.6h4.3V18.5
			h0.1l11.6,18.8h4.7V11.7h-4.3L217.6,30.5L217.6,30.5z M236.4,11.7h-10.6v25.6h10.6c7.9,0,11.3-5.7,11.3-12.8
			S244.2,11.7,236.4,11.7z M234.7,33.6h-4.4V15.4h4.4c7,0,8.5,4,8.5,9.1S241.7,33.6,234.7,33.6z M257.1,11.7l-9.8,25.6h4.6l2.4-6.8
			h10.2l2.4,6.8h4.8l-9.9-25.6C261.8,11.7,257.1,11.7,257.1,11.7z M255.5,27.1l3.9-11h0.1l3.8,11H255.5z M267.4,15.5h8.1v21.8h4.5
			V15.5h8.1v-3.8h-20.7V15.5z M289.6,11.7h4.5v25.6h-4.5V11.7z M308.3,11.1c-7.7,0-12.3,6.1-12.3,13.4s4.6,13.4,12.3,13.4
			s12.3-6.1,12.3-13.4S316,11.1,308.3,11.1L308.3,11.1z M308.3,34.2c-5.5,0-7.8-4.8-7.8-9.7s2.3-9.7,7.8-9.7s7.8,4.8,7.8,9.7
			S313.8,34.2,308.3,34.2z M338.8,11.7v18.9h-0.1l-11.6-18.9h-4.7v25.6h4.3V18.5h0.1l11.6,18.8h4.7V11.7H338.8z M41.9,19.8
			c-0.6,0-0.7,0.6-0.7,1.1v0.2h1.4C42.5,20.2,42.4,19.8,41.9,19.8z M32.2,29.4c0.6,0,0.8-0.4,0.8-1.3s-0.1-1.4-0.8-1.4
			s-0.8,0.6-0.8,1.4S31.6,29.4,32.2,29.4z M18.9,39.2l1,0.2l0.3,0.1V49c0.3,0,1.2,0.3,1.5,0.3v-9.5l0.9,0.2l0.9,0.2l0.6,0.2v9h0.2
			c0.4,0.1,0.7,0.1,1.1,0v-8.7l0.9,0.2l0.9,0.2H28v8.1c0.4-0.1,0.8-0.2,1.2-0.2v-7.6l0.9,0.2l0.9,0.2l0.6,0.2v6.5l1.2-0.4v-5.9
			l0.9,0.2l1,0.2l0.6,0.2V47l1.2-0.4v-3.5l0.9,0.2l0.9,0.2l0.6,0.2l0.1,1.4c0.9-0.6,1.7-1.2,2.5-1.9l-24-5.2l-3.4,1.3l-4.3-0.7
			l-4.7,1.8l0.7,0.8l3.6-1.4v4.6c0.3,0.2,0.9,0.5,1.2,0.7v-5.3l2.9,0.5v6.6l1.4,0.7v-7.5l2.1-0.9v9l1.4,0.4v-9.5L18.9,39.2z"/>
		<path class="st0" d="M24.6,0.1C10.9,0.2-0.1,11.4,0,25.1c0,0,0,0,0,0.1c0,4.9,1.5,9.7,4.3,13.7L5,38.5v-2.7c0-0.5,0.5-0.5,0.5-0.2
			v2.1c0,0.5,0.5,0.6,0.5,0.1v-3.1c0-0.5,1.7-1.2,1.7-0.9v3.3c0,0.5,0.7,0.2,0.7-0.2v-3.5c0-0.3,2.1-0.9,2.1-0.6v3.3
			c0,0.3,1,0.1,1-0.2v-3.3c0.8-0.2,1.7-0.3,2.6-0.2v3.7c0,0.3,1,0.2,1-0.1v-3.3c0.9-0.1,1.8-0.1,2.6,0.2v3c0,0.3,0.8,0.5,0.8,0v-2.8
			c0.1-0.2,1.6,0.5,1.9,0.2c0,0,0.2-0.5-1-0.9c-6.4-1.7-10.9,0-12.8,1c-0.3,0.2-0.7,0.4-1,0.5c-0.4,0.2-0.7,0.5-0.7,0.4
			c0.2-0.9-0.1-0.9,1.4-1.7c4-2.1,9-2.3,13.8-1.1c1.1,0.3,1.3,0.1,1.3-0.2s0-0.5-0.8-0.8c-1.6-0.5-8.7-2.2-15,1.3
			c-0.2,0.1-0.2-0.3,0-0.6c0.3-0.3,0.7-0.5,1.1-0.7v-0.3l-0.4-0.4v-0.3c3.6-2,9.7-2.3,12.7-1.4c1,0.3,1.8,0.4,1.8,0.2
			c0-0.5-1.8-1-2.3-1.2c-3.7-0.7-7.5-0.4-11,0.9c-0.5,0.2-0.8,0.3-0.8,0.2c0.1-0.3,0.3-0.6,0.5-0.8c0.4-0.2,0.6-0.6,0.6-1
			c0-0.2,0-0.5,0.1-0.7c1-2.1,2.5-3.8,4.5-5c0.2-0.5,0.5-1,0.9-1.4v-1.2c-0.1-0.3-0.2-0.6-0.4-0.8c-0.1-0.1-0.1-0.3,0-0.4
			c0.7-0.9,1.2-1.4,1.2-1.7s0.1-2.9,0.4-2.9s0.4,2.5,0.4,3s0.7,0.9,1.2,1.6c0.1,0.1,0,0.4,0,0.4c-0.2,0.2-0.3,0.5-0.4,0.8v1.3
			c0.4,0.4,0.7,0.9,0.9,1.4c2.3,1.4,4,3.7,4.6,6.4c0.8,0.6,1.4,1.3,1.8,2.2V30c-0.1,0.3-0.2,0.5-0.5,0.7v0.7c0.8,0.5,1.5,1.1,2,1.9
			c0,0.4,0,0.8-0.1,1.2c0,0-0.3,0.6-0.5,1.1v1.7l19,4.5c9.3-10.1,8.5-25.8-1.6-35.1l0,0C36.8,2.4,30.8,0.1,24.6,0.1z"/>
	</g>
	<g>
		<path class="st0" d="M1.9,122.4c0-10.5,5.5-16.4,11.2-22.3c5-5,9.2-9.4,9.2-16.1c0-5.5-2.1-10.9-9.2-10.9c-7.8,0-9.7,5.5-9.7,10.8
			v3H1.9V84c0-6.1,2.4-12.4,11.2-12.4C21.3,71.6,24,77.7,24,84c0,7.2-4.3,12-9.5,17.2c-5.7,5.6-11,11.2-11,20.9v1.1h20.2v1.6H1.9
			V122.4z"/>
		<path class="st0" d="M30.3,113.1V84c0-8.2,4-12.4,11.1-12.4c7.3,0,11.2,4.3,11.2,12.4v29.1c0,8.2-4,12.4-11.2,12.4
			C34.3,125.5,30.3,121.2,30.3,113.1z M51,113.1V83.9c0-7.2-3.3-10.8-9.6-10.8c-6.1,0-9.4,3.6-9.4,10.8v29.2
			c0,7.2,3.3,10.8,9.4,10.8C47.7,123.9,51,120.2,51,113.1z"/>
		<path class="st0" d="M59.2,122.4c0-10.5,5.5-16.4,11.2-22.3c5-5,9.2-9.4,9.2-16.1c0-5.5-2.1-10.9-9.2-10.9
			c-7.8,0-9.7,5.5-9.7,10.8v3h-1.6V84c0-6.1,2.4-12.4,11.2-12.4c8.2,0,10.9,6.1,10.9,12.4c0,7.2-4.3,12-9.5,17.2
			c-5.7,5.6-10.9,11.2-10.9,20.8v1.1H81v1.6H59.2V122.4z"/>
		<path class="st0" d="M126.1,112.2v-3h7.8v3.6c0,3.8,1.6,5.1,4.3,5.1c2.6,0,4.3-1.4,4.3-5.2c0-4.3-1.8-7-7.2-11.8
			c-6.9-6.1-9.2-10.4-9.2-16.4c0-8.2,4.3-13,12.3-13s12,4.8,12,13.2v2.2h-7.8v-2.7c0-3.8-1.5-5.2-4.1-5.2s-4.2,1.4-4.2,5
			c0,3.8,1.9,6.5,7.3,11.2c6.9,6.1,9.1,10.3,9.1,16.9c0,8.5-4.4,13.3-12.4,13.3S126.1,120.7,126.1,112.2z"/>
		<path class="st0" d="M161.7,79.8h-8.6v-7.5h25.5v7.5H170v45h-8.2L161.7,79.8L161.7,79.8z"/>
		<path class="st0" d="M195.5,114.5H186l-1.4,10.3H177l8.5-52.5h11.2l8.5,52.5H197L195.5,114.5z M194.5,107.4l-3.7-26.5l-3.7,26.5
			H194.5z"/>
		<path class="st0" d="M212.2,79.8h-8.6v-7.5H229v7.5h-8.6v45h-8.2V79.8z"/>
		<path class="st0" d="M233,72.2h22.5v7.5h-14.2v13.9h11.3v7.5h-11.3v16.1h14.2v7.5H233V72.2z"/>
		<path class="st0" d="M271.9,72.2h12.5c8.5,0,12.2,4,12.2,12.1v2.1c0,5.4-1.7,8.8-5.3,10.3v0.1c4.4,1.5,6.1,5.4,6.1,10.9v4.5
			c0,8.1-4.3,12.4-12.5,12.4h-13L271.9,72.2L271.9,72.2z M283.4,93.6c3.1,0,5-1.4,5-5.5v-2.9c0-3.8-1.3-5.4-4.2-5.4h-4v13.9
			L283.4,93.6L283.4,93.6z M284.9,117.2c2.8,0,4.3-1.3,4.3-5.2v-4.6c0-4.9-1.6-6.4-5.3-6.4h-3.7v16.1L284.9,117.2L284.9,117.2z"/>
		<path class="st0" d="M301.9,112.2v-40h8.2v40.6c0,3.8,1.6,5.1,4.2,5.1s4.2-1.4,4.2-5.1V72.2h7.9v40c0,8.4-4.2,13.2-12.3,13.2
			S301.9,120.7,301.9,112.2z"/>
		<path class="st0" d="M331,112.2v-3h7.8v3.6c0,3.8,1.6,5.1,4.3,5.1s4.3-1.4,4.3-5.2c0-4.3-1.8-7-7.2-11.8
			c-6.9-6.1-9.2-10.4-9.2-16.4c0-8.2,4.3-13,12.3-13s12,4.8,12,13.2v2.2h-7.8v-2.7c0-3.8-1.5-5.2-4.1-5.2s-4.2,1.4-4.2,5
			c0,3.8,1.9,6.5,7.3,11.2c6.9,6.1,9.1,10.3,9.1,16.9c0,8.5-4.3,13.3-12.4,13.3S331,120.7,331,112.2z"/>
		<path class="st0" d="M360.2,72.2h8.2v52.5h-8.2V72.2z"/>
		<path class="st0" d="M374.6,72.2h10.2l8.3,31.4V72.2h7.4v52.5h-8.3L382,86.4v38.3h-7.3V72.2H374.6z"/>
		<path class="st0" d="M406.6,72.2h22.5v7.5h-14.2v13.9h11.3v7.5h-11.3v16.1h14.2v7.5h-22.5V72.2z"/>
		<path class="st0" d="M432.3,112.2v-3h7.8v3.6c0,3.8,1.7,5.1,4.3,5.1s4.3-1.4,4.3-5.2c0-4.3-1.8-7-7.2-11.8
			c-6.9-6.1-9.2-10.4-9.2-16.4c0-8.2,4.3-13,12.3-13s12,4.8,12,13.2v2.2h-7.8v-2.7c0-3.8-1.5-5.2-4.1-5.2s-4.2,1.4-4.2,5
			c0,3.8,1.9,6.5,7.3,11.2c6.9,6.1,9.1,10.3,9.1,16.9c0,8.5-4.3,13.3-12.4,13.3S432.3,120.7,432.3,112.2z"/>
		<path class="st0" d="M460,112.2v-3h7.8v3.6c0,3.8,1.7,5.1,4.3,5.1s4.3-1.4,4.3-5.2c0-4.3-1.8-7-7.2-11.8
			c-6.9-6.1-9.2-10.4-9.2-16.4c0-8.2,4.3-13,12.3-13s12,4.8,12,13.2v2.2h-7.8v-2.7c0-3.8-1.5-5.2-4.1-5.2s-4.2,1.4-4.2,5
			c0,3.8,1.9,6.5,7.3,11.2c6.9,6.1,9.1,10.3,9.1,16.9c0,8.5-4.3,13.3-12.4,13.3S460,120.7,460,112.2z"/>
		<path class="st0" d="M8.6,141.8H0v-7.5h25.5v7.5h-8.6v45H8.6V141.8z"/>
		<path class="st0" d="M42.4,176.4h-9.5l-1.4,10.3h-7.6l8.5-52.5h11.2l8.5,52.5h-8.2L42.4,176.4z M41.4,169.4l-3.7-26.5L34,169.4
			H41.4z"/>
		<path class="st0" d="M63.4,159.9l-9.1-25.6H63l5.6,17.2l5.8-17.2h7.8l-9.1,25.6l9.5,26.8h-8.7l-6.1-18.5l-6.2,18.5h-7.8
			L63.4,159.9z"/>
		<path class="st0" d="M97.9,174.6v-28.2c0-8.1,4.2-12.9,12.1-12.9s12.1,4.8,12.1,12.9v5.5h-7.8v-6.1c0-3.4-1.6-4.9-4.1-4.9
			s-4.1,1.4-4.1,4.9v29.3c0,3.4,1.6,4.8,4.1,4.8s4.1-1.4,4.1-4.8v-7.6h7.8v7c0,8.1-4.2,12.9-12.1,12.9S97.9,182.7,97.9,174.6z"/>
		<path class="st0" d="M127,134.2h8.2v45h13.6v7.5H127V134.2z"/>
		<path class="st0" d="M152.8,134.2h8.2v52.5h-8.2V134.2z"/>
		<path class="st0" d="M167.2,134.2h11.6l5.5,38.1l5.5-38.1h11.6v52.5h-7.8V147l-6.1,39.7h-6.9l-6.1-39.7v39.7h-7.2v-52.5H167.2z"/>
		<path class="st0" d="M223.9,176.4h-9.5l-1.4,10.3h-7.6l8.5-52.5h11.2l8.5,52.5h-8.2L223.9,176.4z M222.9,169.4l-3.7-26.5
			l-3.7,26.5H222.9z"/>
		<path class="st0" d="M240.6,141.8H232v-7.5h25.5v7.5h-8.6v45h-8.2L240.6,141.8L240.6,141.8z"/>
		<path class="st0" d="M261.4,134.2h22.5v7.5h-14.2v13.9H281v7.5h-11.3v16.1h14.2v7.5h-22.5L261.4,134.2L261.4,134.2z"/>
		<path class="st0" d="M300.4,134.2h8.2v52.5h-8.2V134.2z"/>
		<path class="st0" d="M314.8,134.2H325l8.3,31.4v-31.4h7.3v52.5h-8.3l-10.2-38.3v38.3h-7.3V134.2z"/>
		<path class="st0" d="M346.8,134.2h12.6c8.2,0,12.3,4.6,12.3,13v26.5c0,8.4-4,13-12.3,13h-12.6V134.2z M359.2,179.2
			c2.6,0,4.2-1.4,4.2-5.1v-27.3c0-3.8-1.6-5.1-4.2-5.1H355v37.5L359.2,179.2L359.2,179.2z"/>
		<path class="st0" d="M377.2,134.2h22.5v7.5h-14.2v13.9h11.3v7.5h-11.3v16.1h14.2v7.5h-22.5V134.2z"/>
		<path class="st0" d="M411.7,159.9l-9.1-25.6h8.7l5.6,17.2l5.8-17.2h7.8l-9.1,25.6l9.5,26.8h-8.7l-6.1-18.5l-6.2,18.5h-7.8
			L411.7,159.9z"/>
	</g>
	<g>
		<path class="st1" d="M103.5,112.5H84v-1.7l19.1-39.2h2.1v39.3h4.8v1.6h-4.8v12.6h-1.7V112.5z M103.5,110.9V74.3l-17.9,36.5
			L103.5,110.9L103.5,110.9z"/>
	</g>
</g>
</svg>
