<?xml version="1.0" encoding="utf-8"?>
<!-- Generator: Adobe Illustrator 24.1.2, SVG Export Plug-In . SVG Version: 6.00 Build 0)  -->
<svg id="Layer_1" data-name="Layer 1" xmlns="http://www.w3.org/2000/svg" viewBox="0 0 490.7 187.4"><defs><style>.cls-1{fill:#fff;}</style></defs><path class="cls-1" d="M2.2,122.46c0-10.36,5.4-16.21,11.1-22,5-5,9.1-9.33,9.1-15.91,0-5.48-2.07-10.81-9.1-10.81-7.7,0-9.55,5.48-9.55,10.66v3H2.2V84.49c0-6.07,2.37-12.28,11.1-12.28,8.07,0,10.73,6,10.73,12.28,0,7.11-4.22,11.84-9.4,17-5.62,5.55-10.8,11-10.8,20.58v1.11H23.74v1.55H2.2Z"/><path class="cls-1" d="M30.25,113.21V84.49c0-8.06,3.92-12.28,11-12.28s11.1,4.22,11.1,12.28v28.72c0,8.06-3.92,12.28-11.1,12.28S30.25,121.27,30.25,113.21Zm20.42.07V84.42c0-7.11-3.26-10.66-9.47-10.66s-9.33,3.55-9.33,10.66v28.86c0,7.11,3.26,10.66,9.33,10.66S50.67,120.39,50.67,113.28Z"/><path class="cls-1" d="M58.81,122.46c0-10.36,5.4-16.21,11.1-22,5-5,9.1-9.33,9.1-15.91,0-5.48-2.07-10.81-9.1-10.81-7.7,0-9.55,5.48-9.55,10.66v3H58.81V84.49c0-6.07,2.37-12.28,11.1-12.28,8.07,0,10.73,6,10.73,12.28,0,7.11-4.22,11.84-9.4,17-5.62,5.55-10.8,11-10.8,20.58v1.11h19.9v1.55H58.81Z"/><path class="cls-1" d="M86.19,122.46c0-10.36,5.4-16.21,11.1-22,5-5,9.1-9.33,9.1-15.91,0-5.48-2.07-10.81-9.1-10.81-7.7,0-9.55,5.48-9.55,10.66v3H86.19V84.49c0-6.07,2.37-12.28,11.1-12.28,8.06,0,10.73,6,10.73,12.28,0,7.11-4.22,11.84-9.4,17-5.62,5.55-10.8,11-10.8,20.58v1.11h19.9v1.55H86.19Z"/><path class="cls-1" d="M69.3,37.2h4.5V15.4h8.1V11.6H61.2v3.8h8.1V37.2ZM91,11.6H86.2L76.4,37.2H81l2.4-6.8H93.6L96,37.2h4.4l.3-.4ZM84.7,27l3.9-11h.1l3.8,11Zm20.9,10.2,6.5-9.8,6.4,9.8h5.4l-9.1-13.3,8.5-12.3h-5l-6,9-5.8-9h-5.3l8.5,12.3-8.8,12.9.1.4ZM170.7,8.1l-.1-.4-.3.4ZM133.5,37.2H138V25.8h11.6V22.1H138V15.4h13.2V11.6H133.5ZM163.4,11c-7.7,0-12.3,6.1-12.3,13.4s4.6,13.4,12.3,13.4,12.3-6.1,12.3-13.4S171.1,11,163.4,11Zm0,23.1c-5.5,0-7.8-4.8-7.8-9.7s2.3-9.7,7.8-9.7,7.8,4.8,7.8,9.7-2.3,9.7-7.8,9.7Zm30.5-7.6c0,3.4-.2,7.4-6,7.4s-6-4-6-7.4V11.6h-4.5V28c0,6.6,4.2,9.8,10.5,9.8s10.5-3.2,10.5-9.8V11.6h-4.5Zm23.7,3.9h0L205.9,11.6h-4.7V37.2h4.3V18.4h.1l11.6,18.8h4.7V11.6h-4.3V30.4Zm18.8-18.8H225.8V37.2h10.6c7.9,0,11.3-5.7,11.3-12.8S244.2,11.6,236.4,11.6Zm-1.7,21.9h-4.4V15.3h4.4c7,0,8.5,4,8.5,9.1S241.7,33.5,234.7,33.5Zm22.4-21.9-9.8,25.6h4.6l2.4-6.8h10.2l2.4,6.8h4.8l-9.9-25.6ZM255.5,27l3.9-11h.1l3.8,11Zm11.9-11.6h8.1V37.2H280V15.4h8.1V11.6H267.4v3.8Zm22.2-3.8h4.5V37.2h-4.5Zm18.7-.6c-7.7,0-12.3,6.1-12.3,13.4s4.6,13.4,12.3,13.4,12.3-6.1,12.3-13.4S316,11,308.3,11Zm0,23.1c-5.5,0-7.8-4.8-7.8-9.7s2.3-9.7,7.8-9.7,7.8,4.8,7.8,9.7-2.3,9.7-7.8,9.7Zm30.5-22.5V30.5h-.1L327.1,11.6h-4.7V37.2h4.3V18.4h.1l11.6,18.8h4.7V11.6ZM41.9,19.7c-.6,0-.7.6-.7,1.1V21h1.4c-.1-.9-.2-1.3-.7-1.3Zm-9.7,9.6c.6,0,.8-.4.8-1.3s-.1-1.4-.8-1.4-.8.6-.8,1.4S31.6,29.3,32.2,29.3ZM18.9,39.1l1,.2.3.1v9.5c.3,0,1.2.3,1.5.3V39.7l.9.2.9.2.6.2v9h.2a4.05,4.05,0,0,0,1.1,0V40.6l.9.2.9.2H28v8.1a5,5,0,0,1,1.2-.2V41.3l.9.2.9.2.6.2v6.5l1.2-.4V42.1l.9.2,1,.2.6.2v4.2l1.2-.4V43l.9.2.9.2.6.2L39,45a23.48,23.48,0,0,0,2.5-1.9l-24-5.2-3.4,1.3-4.3-.7L5.1,40.3l.7.8,3.6-1.4v4.6c.3.2.9.5,1.2.7V39.7l2.9.5v6.6l1.4.7V40l2.1-.9v9l1.4.4V39Z"/><path class="cls-1" d="M24.6,0A24.82,24.82,0,0,0,0,25.1,23.92,23.92,0,0,0,4.3,38.8l.7-.4V35.7c0-.5.5-.5.5-.2v2.1c0,.5.5.6.5.1V34.6c0-.5,1.7-1.2,1.7-.9V37c0,.5.7.2.7-.2V33.3c0-.3,2.1-.9,2.1-.6V36c0,.3,1,.1,1-.2V32.5a7.63,7.63,0,0,1,2.6-.2V36c0,.3,1,.2,1-.1V32.6a5.65,5.65,0,0,1,2.6.2v3c0,.3.8.5.8,0V33c.1-.2,1.6.5,1.9.2,0,0,.2-.5-1-.9-6.4-1.7-10.9,0-12.8,1a8.92,8.92,0,0,1-1,.5c-.4.2-.7.5-.7.4.2-.9-.1-.9,1.4-1.7,4-2.1,9-2.3,13.8-1.1,1.1.3,1.3.1,1.3-.2s0-.5-.8-.8c-1.6-.5-8.7-2.2-15,1.3-.2.1-.2-.3,0-.6a4.13,4.13,0,0,1,1.1-.7v-.3l-.4-.4v-.3C9.9,27.4,16,27.1,19,28c1,.3,1.8.4,1.8.2,0-.5-1.8-1-2.3-1.2a20.58,20.58,0,0,0-11,.9c-.5.2-.8.3-.8.2a2.51,2.51,0,0,1,.5-.8,1.09,1.09,0,0,0,.6-1,1.7,1.7,0,0,1,.1-.7,11.46,11.46,0,0,1,4.5-5,4.19,4.19,0,0,1,.9-1.4V18a2,2,0,0,0-.4-.8.3.3,0,0,1,0-.4c.7-.9,1.2-1.4,1.2-1.7s.1-2.9.4-2.9.4,2.5.4,3,.7.9,1.2,1.6c.1.1,0,.4,0,.4a2,2,0,0,0-.4.8v1.3a3.39,3.39,0,0,1,.9,1.4,10.08,10.08,0,0,1,4.6,6.4A6.25,6.25,0,0,1,23,29.3v.6a1.16,1.16,0,0,1-.5.7v.7a7.28,7.28,0,0,1,2,1.9,4.12,4.12,0,0,1-.1,1.2s-.3.6-.5,1.1v1.7l19,4.5A24.83,24.83,0,0,0,41.3,6.6,24.11,24.11,0,0,0,24.6,0Z"/><path class="cls-1" d="M131,71.7c8,0,12.1,4.8,12.1,13.2v1.7h-7.8V84.4c0-3.7-1.5-5.2-4.1-5.2s-4.1,1.4-4.1,5.2c0,10.8,16.1,12.8,16.1,27.8,0,8.4-4.2,13.2-12.3,13.2s-12.3-4.8-12.3-13.2V109h7.8v3.8c0,3.8,1.7,5.1,4.3,5.1s4.3-1.3,4.3-5.1C135,102,118.9,100,118.9,85,118.9,76.5,123,71.7,131,71.7Z"/><path class="cls-1" d="M145.6,72.3h25.5v7.5h-8.6v45h-8.2v-45h-8.6l-.1-7.5Z"/><path class="cls-1" d="M201.4,124.8H193l-1.4-9.5H181.5l-1.4,9.5h-7.6l8.4-52.5H193Zm-18.9-16.6h7.9l-4-26.5Z"/><path class="cls-1" d="M202.8,72.3h25.5v7.5h-8.6v45h-8.3v-45h-8.6V72.3Z"/><path class="cls-1" d="M240.1,94.5h11.3V102H240.1v15.4h14.2v7.5H231.8V72.3h22.5v7.5H240.1V94.5Z"/><path class="cls-1" d="M295.8,84.4v1.9c0,5.4-1.6,8.8-5.3,10.6,4.4,1.7,6.2,5.7,6.2,11.2v4.3c0,8.1-4.3,12.4-12.5,12.4h-13V72.3h12.4C292.1,72.3,295.8,76.3,295.8,84.4Zm-16.4-4.6V93.7h3.2c3.1,0,4.9-1.3,4.9-5.6V85.2c0-3.8-1.3-5.4-4.2-5.4Zm0,21.4v16.1h4.7c2.8,0,4.3-1.3,4.3-5.2v-4.6c0-4.9-1.6-6.4-5.3-6.4l-3.7.1Z"/><path class="cls-1" d="M309.4,72.3v40.5c0,3.8,1.6,5.1,4.3,5.1s4.3-1.4,4.3-5.1V72.3h7.8v40c0,8.4-4.2,13.2-12.3,13.2s-12.3-4.8-12.3-13.2v-40Z"/><path class="cls-1" d="M342.5,71.7c8,0,12.1,4.8,12.1,13.2v1.7h-7.8V84.4c0-3.7-1.5-5.2-4.1-5.2s-4.1,1.4-4.1,5.2c0,10.8,16.1,12.8,16.1,27.8,0,8.4-4.2,13.2-12.3,13.2s-12.3-4.8-12.3-13.2V109h7.8v3.8c0,3.8,1.7,5.1,4.3,5.1s4.3-1.3,4.3-5.1c0-10.8-16.1-12.8-16.1-27.8C330.4,76.5,334.5,71.7,342.5,71.7Z"/><path class="cls-1" d="M359.5,72.3h8.3v52.5h-8.3Z"/><path class="cls-1" d="M381.1,86.8v38h-7.4V72.3H384l8.5,31.4V72.3h7.3v52.5h-8.5Z"/><path class="cls-1" d="M414,94.5h11.3V102H414v15.4h14.2v7.5H405.7V72.3h22.5v7.5H414Z"/><path class="cls-1" d="M444.4,71.7c8,0,12.1,4.8,12.1,13.2v1.7h-7.8V84.4c0-3.7-1.5-5.2-4.1-5.2s-4.1,1.4-4.1,5.2c0,10.8,16.1,12.8,16.1,27.8,0,8.4-4.2,13.2-12.3,13.2S432,120.6,432,112.2V109h7.8v3.8c0,3.8,1.7,5.1,4.3,5.1s4.3-1.3,4.3-5.1c0-10.8-16.1-12.8-16.1-27.8C432.3,76.5,436.4,71.7,444.4,71.7Z"/><path class="cls-1" d="M472.5,71.7c8,0,12.1,4.8,12.1,13.2v1.7h-7.8V84.4c0-3.7-1.5-5.2-4.1-5.2s-4.1,1.4-4.1,5.2c0,10.8,16.1,12.8,16.1,27.8,0,8.4-4.2,13.2-12.3,13.2s-12.3-4.8-12.3-13.2V109h7.8v3.8c0,3.8,1.7,5.1,4.3,5.1s4.3-1.3,4.3-5.1c0-10.8-16.1-12.8-16.1-27.8C460.3,76.5,464.5,71.7,472.5,71.7Z"/><path class="cls-1" d="M0,134.3H25.5v7.5H16.9v45H8.6v-45H0Z"/><path class="cls-1" d="M55.8,186.8H47.5l-1.4-9.5H35.9l-1.4,9.5H26.9l8.4-52.5H47.4ZM37,170.2h7.9l-4-26.5Z"/><path class="cls-1" d="M87.1,134.3l-8.6,25.5,9.2,27H79L72.3,166l-6.8,20.8H57.8l9.2-27-8.6-25.5h8.5l6.2,19.3,6.4-19.3Z"/><path class="cls-1" d="M127.4,167.3v7c0,8.4-4.2,13.2-12.3,13.2s-12.3-4.8-12.3-13.2V147c0-8.4,4.2-13.2,12.3-13.2s12.3,4.8,12.3,13.2v5.1h-7.8v-5.6c0-3.7-1.6-5.2-4.3-5.2s-4.3,1.4-4.3,5.2v28.3c0,3.8,1.7,5.1,4.3,5.1s4.3-1.3,4.3-5.1v-7.5Z"/><path class="cls-1" d="M132.4,134.3h8.3v45h13.6v7.5H132.5V134.3Z"/><path class="cls-1" d="M157.9,134.3h8.3v52.5h-8.3Z"/><path class="cls-1" d="M189.6,171.6l5.6-37.3h11.5v52.5h-7.8V149.2l-5.7,37.6h-7.8l-6.1-37.1v37.1H172V134.3h11.5Z"/><path class="cls-1" d="M239.4,186.8h-8.3l-1.4-9.5H219.6l-1.4,9.5h-7.6l8.4-52.5h12Zm-18.8-16.6h7.9l-4-26.5Z"/><path class="cls-1" d="M240.8,134.3h25.5v7.5h-8.6v45h-8.3v-45h-8.6v-7.5Z"/><path class="cls-1" d="M278.2,156.5h11.3V164H278.2v15.4h14.2v7.5H269.9V134.4h22.5v7.5H278.2Z"/><path class="cls-1" d="M309.1,134.3h8.3v52.5h-8.3Z"/><path class="cls-1" d="M330.7,148.8v38h-7.4V134.3h10.3l8.5,31.4V134.3h7.3v52.5H341Z"/><path class="cls-1" d="M355.4,134.3h13c8.2,0,12.3,4.6,12.3,13v26.5c0,8.4-4,13-12.3,13h-13Zm8.3,7.5v37.5h4.6c2.6,0,4.2-1.3,4.2-5.1V146.9c0-3.8-1.6-5.1-4.2-5.1Z"/><path class="cls-1" d="M394.3,156.5h11.3V164H394.3v15.4h14.2v7.5H386V134.4h22.5v7.5H394.3Z"/><path class="cls-1" d="M441.1,134.3l-8.6,25.5,9.2,27H433L426.3,166l-6.8,20.8h-7.7l9.2-27-8.6-25.5h8.5l6.2,19.3,6.4-19.3Z"/></svg>