<svg data-name="Layer 1" xmlns="http://www.w3.org/2000/svg" viewBox="0 0 644.3 238.6"><defs><clipPath id="a"><path fill="none" d="M0 0h644.3v238.6H0z"/></clipPath></defs><g clip-path="url(#a)"><circle cx="150" cy="150" r="150" fill="#4cb6ac"/><path fill="#fff" d="M229.29 53.18h4.47V31.43h8.14v-3.84h-20.71v3.84h8.1v21.75zM251 27.59h-4.77l-9.81 25.59h4.62l2.4-6.76h10.21l2.4 6.76h4.39l.26-.39zM244.69 43l3.87-11h.1l3.84 11zM265.59 53.18l6.48-9.78 6.38 9.78h5.44l-9.06-13.26 8.45-12.33h-5.01l-6.05 9.03-5.81-9.03h-5.34l8.46 12.33-8.8 12.87.15.39h4.71zM330.73 24.07l-.15-.38-.27.38h.42zM293.48 53.18h4.48V41.8h11.57v-3.66h-11.57v-6.71h13.18v-3.84h-17.66v25.59zM323.44 27c-7.68 0-12.27 6.09-12.27 13.37s4.59 13.38 12.27 13.38 12.27-6.09 12.27-13.38S331.12 27 323.44 27zm0 23.09c-5.49 0-7.79-4.83-7.79-9.72s2.3-9.71 7.79-9.71 7.79 4.82 7.79 9.71-2.3 9.73-7.79 9.73zM353.86 42.5c0 3.44-.22 7.42-6 7.42s-6-4-6-7.42V27.58h-4.48V44c0 6.56 4.19 9.8 10.49 9.8s10.49-3.24 10.49-9.8V27.58h-4.48zM377.62 46.44h-.07L365.9 27.59h-4.72v25.59h4.26V34.36h.11l11.61 18.82h4.72V27.59h-4.26v18.85zM396.38 27.59h-10.59v25.58h10.59c7.86 0 11.27-5.74 11.27-12.8s-3.41-12.78-11.27-12.78zm-1.71 21.92h-4.4V31.25h4.4c7 0 8.5 4 8.5 9.13s-1.5 9.13-8.5 9.13zM417.06 27.58l-9.81 25.6h4.62l2.4-6.76h10.21l2.4 6.76h4.8l-9.85-25.6zM415.48 43l3.87-11h.11l3.83 11zM427.38 31.43h8.1v21.75h4.47V31.43h8.14v-3.84h-20.71v3.84zM449.63 27.58h4.48v25.59h-4.48zM468.31 27C460.62 27 456 33.1 456 40.38s4.58 13.38 12.27 13.38 12.26-6.09 12.26-13.38S476 27 468.31 27zm0 23.09c-5.5 0-7.79-4.83-7.79-9.72s2.29-9.71 7.79-9.71 7.78 4.82 7.78 9.71-2.29 9.73-7.78 9.73zM498.78 27.59v18.85h-.07l-11.65-18.85h-4.73v25.59h4.26V34.36h.11l11.61 18.82h4.72V27.59h-4.25zM201.86 35.67c-.55 0-.71.57-.71 1.07V37h1.4c-.03-.87-.13-1.33-.69-1.33zM192.16 45.25c.57 0 .79-.38.79-1.34 0-.81-.12-1.4-.79-1.4s-.77.6-.77 1.4c0 .96.22 1.34.77 1.34zM178.91 55.07l1 .21.34.06v9.45c.3 0 1.17.29 1.48.33v-9.45l.93.21.92.2.55.15v9h.23c.24 0 .85.06 1.08 0v-8.74l.93.21.93.2.7.1v8.14c.32-.05.87-.18 1.18-.24v-7.6l.93.2.92.21.62.19v6.49c.31-.09.92-.3 1.22-.4V58.1l.93.2 1 .21.65.17v4.16c.31-.14.89-.26 1.19-.41v-3.51l.93.19.93.2.65.17L199 61c.76-.52 1.8-1.28 2.5-1.88l-24-5.21-3.37 1.34-4.3-.68-4.73 1.8.68.75 3.6-1.41v4.6c.3.22.92.5 1.23.71v-5.29l2.94.45v6.59c.38.18 1 .5 1.42.67v-7.39l2.08-.88v9l1.42.37V55z"/><path d="M184.64 16a24.85 24.85 0 0 0-20.38 38.76l.71-.33v-2.7c0-.45.49-.51.49-.22v2.14c0 .49.49.62.49.11v-3.08c0-.49 1.74-1.22 1.74-.92v3.35c0 .45.73.18.73-.21v-3.45c0-.32 2.07-.92 2.1-.57s0 3 0 3.33 1 .13 1-.21v-3.28a8.45 8.45 0 0 1 2.6-.2v3.44c0 .26 1 .19 1-.11v-3.29a5.94 5.94 0 0 1 2.64.21v3c0 .25.84.46.84 0v-2.83c.08-.22 1.62.54 1.85.2 0 0 .24-.53-1-.86-6.42-1.69-10.86 0-12.84 1-.13.07-.58.28-1 .53s-.7.48-.69.42c.23-.89-.14-.88 1.4-1.71 4-2.1 9-2.35 13.79-1.08 1.06.28 1.3.06 1.28-.17 0-.42 0-.55-.84-.8-1.59-.48-8.67-2.22-15 1.31-.18.1-.21-.31 0-.59a3.23 3.23 0 0 1 1.06-.67v-.3l-.41-.38v-.31c3.7-2.16 9.8-2.38 12.8-1.53 1 .27 1.79.4 1.77.15 0-.49-1.83-1-2.25-1.15a19.88 19.88 0 0 0-11 .93c-.46.19-.75.3-.78.23s.25-.64.49-.81c.55-.41.58-.85.55-1a1.6 1.6 0 0 1 .13-.68 11.69 11.69 0 0 1 4.47-5 3.23 3.23 0 0 1 .89-1.39V34a2.44 2.44 0 0 0-.43-.84.42.42 0 0 1 0-.37c.68-.94 1.21-1.37 1.21-1.73s.11-2.88.44-2.88.44 2.51.44 3 .69.89 1.2 1.64c.09.14 0 .37 0 .37a1.74 1.74 0 0 0-.38.82v1.26a2.68 2.68 0 0 1 .89 1.38 10 10 0 0 1 4.61 6.4 5.92 5.92 0 0 1 1.76 2.23 2.81 2.81 0 0 1 0 .63 1.47 1.47 0 0 1-.46.72v.65a6.93 6.93 0 0 1 2 1.93c.13.23-.1 1.15-.1 1.15s-.26.61-.53 1.08a15.29 15.29 0 0 0 0 1.66l19 4.5A24.85 24.85 0 0 0 184.64 16z" fill="#fff"/><path d="M184.66 99.64c0 14.49-19.76 19.32-20 37.22v.29h19.75v1.56H163v-1.11c0-19.46 20-23.92 20-37.88 0-6.54-2.08-11.89-9.29-11.89-7 0-9.21 5.65-9.21 11.89v2.82H163v-2.75c0-7.2 2.82-13.44 10.85-13.44s10.81 5.94 10.81 13.29zM191.13 99.49c0-7.35 3.12-13.14 11.06-13.14s11.07 5.79 11.07 13.14v26.45c0 7.28-3.12 13.14-11.07 13.14s-11.06-5.86-11.06-13.14zm1.63 26.45c0 6.46 2.53 11.66 9.43 11.66s9.44-5.2 9.44-11.66V99.42c0-6.39-2.53-11.59-9.44-11.59s-9.43 5.2-9.43 11.59zM229.16 89.84a10.4 10.4 0 0 1-8.69 5.79v-1.48c4.6-.45 7.35-3.49 8.76-7.51h1.56v52.07h-1.63zM260.36 99.49v26.37c0 7.36-3.05 13.22-11.07 13.22-7.87 0-11.07-5.64-11.07-13v-.38h1.56v.45c0 6.39 2.6 11.44 9.51 11.44s9.43-5.2 9.43-11.81V111.3c-1.41 4.24-4.83 6.32-9.8 6.32-7.73 0-10.7-5.8-10.7-13v-5.13c0-7.35 3.12-13.22 11.07-13.22s11.07 5.87 11.07 13.22zm-20.5-.07v5.12c0 6.39 2.52 11.59 9.43 11.59s9.43-5.2 9.43-11.59v-5.12c0-6.39-2.52-11.59-9.43-11.59s-9.43 5.17-9.43 11.59z" fill="#fff" stroke="#fff" stroke-miterlimit="10"/><path d="M290.3 86.12c7.94 0 12 4.76 12 13.08v1.63h-7.7v-2.15c0-3.72-1.48-5.13-4.08-5.13s-4.09 1.41-4.09 5.13c0 10.69 16 12.7 16 27.55 0 8.32-4.16 13.08-12.18 13.08S278 134.55 278 126.23V123h7.72v3.71c0 3.72 1.64 5.06 4.24 5.06s4.23-1.34 4.23-5.06c0-10.69-16-12.7-16-27.55.07-8.28 4.16-13.04 12.11-13.04zM305.45 86.72h25.26v7.43h-8.55v44.56H314V94.15h-8.54zM358.64 138.71h-8.25l-1.39-9.43h-10l-1.41 9.43H330l8.32-52h12zM340 122.22h7.88l-3.94-26.29zM358 86.72h25.26v7.43h-8.55v44.56h-8.17V94.15H358zM395.71 108.63h11.21v7.43h-11.21v15.23h14.11v7.42h-22.28v-52h22.28v7.43h-14.11zM452.31 98.68v1.85c0 5.35-1.63 8.77-5.27 10.48 4.38 1.71 6.09 5.64 6.09 11.14v4.23c0 8-4.24 12.33-12.41 12.33h-12.85v-52h12.33c8.47.01 12.11 3.95 12.11 11.97zM436 94.15v13.74h3.2c3 0 4.9-1.34 4.9-5.5v-2.9c0-3.71-1.26-5.34-4.16-5.34zm0 21.17v16h4.68c2.75 0 4.24-1.27 4.24-5.13v-4.53c0-4.83-1.56-6.31-5.28-6.31zM466.57 86.72v40.11c0 3.71 1.64 5 4.24 5s4.23-1.34 4.23-5V86.72h7.73v39.59c0 8.32-4.16 13.07-12.19 13.07s-12.18-4.75-12.18-13.07V86.72zM500.08 86.12c7.94 0 12 4.76 12 13.08v1.63h-7.73v-2.15c0-3.72-1.48-5.13-4.08-5.13s-4.09 1.41-4.09 5.13c0 10.69 16 12.7 16 27.55 0 8.32-4.16 13.08-12.18 13.08s-12.18-4.76-12.18-13.08V123h7.72v3.71c0 3.72 1.64 5.06 4.24 5.06s4.23-1.34 4.23-5.06c0-10.69-16-12.7-16-27.55-.01-8.28 4.12-13.04 12.07-13.04zM517.61 86.72h8.17v52h-8.17zM539.74 101.05v37.66h-7.35v-52h10.25l8.36 31.13V86.72h7.28v52h-8.39zM573.1 108.63h11.21v7.43H573.1v15.23h14.11v7.42h-22.28v-52h22.28v7.43H573.1zM604 86.12c8 0 12 4.76 12 13.08v1.63h-7.72v-2.15c0-3.72-1.49-5.13-4.09-5.13s-4.09 1.41-4.09 5.13c0 10.69 16 12.7 16 27.55 0 8.32-4.16 13.08-12.19 13.08s-12.18-4.76-12.18-13.08V123h7.73v3.71c0 3.72 1.63 5.06 4.23 5.06s4.23-1.34 4.23-5.06c0-10.69-16-12.7-16-27.55.08-8.28 4.13-13.04 12.08-13.04zM632.52 86.12c8 0 12 4.76 12 13.08v1.63h-7.73v-2.15c0-3.72-1.48-5.13-4.08-5.13s-4.09 1.41-4.09 5.13c0 10.69 16 12.7 16 27.55 0 8.32-4.16 13.08-12.18 13.08s-12.18-4.76-12.18-13.08V123H628v3.71c0 3.72 1.64 5.06 4.24 5.06s4.23-1.34 4.23-5.06c0-10.69-16-12.7-16-27.55.02-8.28 4.11-13.04 12.05-13.04zM160.59 152.43h25.26v7.43h-8.54v44.57h-8.17v-44.57h-8.55zM213.78 204.43h-8.24l-1.42-9.43h-10l-1.42 9.44h-7.5l8.32-52h12zm-18.64-16.49H203l-3.94-26.3zM245.57 152.43L237 177.69l9.14 26.74h-8.62l-6.68-20.58-6.76 20.58h-7.65l9.13-26.74-8.54-25.26h8.47l6.16 19.17 6.35-19.17zM287 185v7c0 8.32-4.16 13.07-12.18 13.07s-12.18-4.75-12.18-13.07v-27c0-8.32 4.16-13.07 12.18-13.07S287 156.59 287 164.91V170h-7.72v-5.57c0-3.71-1.64-5.12-4.24-5.12s-4.23 1.41-4.23 5.12v28.08c0 3.71 1.63 5.05 4.23 5.05s4.24-1.34 4.24-5.05V185zM292.67 152.43h8.17V197h13.45v7.43h-21.62zM318.6 152.43h8.17v52h-8.17zM350.76 189.35l5.57-36.92h11.37v52H360v-37.29l-5.64 37.29h-7.76l-6.09-36.77v36.77h-7.13v-52h11.36zM400.83 204.43h-8.25l-1.41-9.43h-10l-1.41 9.44h-7.5l8.32-52h12zm-18.65-16.49h7.88l-3.94-26.3zM400.16 152.43h25.26v7.43h-8.55v44.57h-8.17v-44.57h-8.54zM437.9 174.34h11.21v7.43H437.9V197H452v7.43h-22.28v-52H452v7.43h-14.1zM470.06 152.43h8.17v52h-8.17zM492.2 166.77v37.66h-7.36v-52h10.25l8.4 31.12v-31.12h7.28v52h-8.4zM517.38 152.43h12.92c8.18 0 12.19 4.53 12.19 12.85v26.3c0 8.32-4 12.85-12.19 12.85h-12.92zm8.17 7.43V197h4.61c2.6 0 4.16-1.34 4.16-5.05v-27c0-3.71-1.56-5-4.16-5zM556.6 174.34h11.22v7.43H556.6V197h14.11v7.43h-22.28v-52h22.28v7.43H556.6zM603.77 152.43l-8.54 25.26 9.14 26.74h-8.62l-6.69-20.58-6.76 20.58h-7.65l9.14-26.74-8.54-25.26h8.47l6.16 19.17 6.31-19.17z" fill="#fff"/></g></svg>