<?xml version="1.0" encoding="utf-8"?>
<!-- Generator: Adobe Illustrator 23.1.0, SVG Export Plug-In . SVG Version: 6.00 Build 0)  -->
<svg version="1.1" id="Layer_1" xmlns="http://www.w3.org/2000/svg" xmlns:xlink="http://www.w3.org/1999/xlink" x="0px" y="0px"
	 viewBox="0 0 490.7 187.4" style="enable-background:new 0 0 490.7 187.4;" xml:space="preserve">
<style type="text/css">
	.st0{fill:#FFFFFF;}
</style>
<g>
	<g>
		<path class="st0" d="M69.3,37.2h4.5V15.4h8.1v-3.8H61.2v3.8h8.1L69.3,37.2L69.3,37.2z M91,11.6h-4.8l-9.8,25.6H81l2.4-6.8h10.2
			l2.4,6.8h4.4l0.3-0.4L91,11.6z M84.7,27l3.9-11h0.1l3.8,11H84.7z M105.6,37.2l6.5-9.8l6.4,9.8h5.4l-9.1-13.3l8.5-12.3h-5l-6,9
			l-5.8-9h-5.3l8.5,12.3l-8.8,12.9l0.1,0.4L105.6,37.2L105.6,37.2z M170.7,8.1l-0.1-0.4l-0.3,0.4H170.7L170.7,8.1z M133.5,37.2h4.5
			V25.8h11.6v-3.7H138v-6.7h13.2v-3.8h-17.7V37.2z M163.4,11c-7.7,0-12.3,6.1-12.3,13.4s4.6,13.4,12.3,13.4s12.3-6.1,12.3-13.4
			S171.1,11,163.4,11z M163.4,34.1c-5.5,0-7.8-4.8-7.8-9.7s2.3-9.7,7.8-9.7s7.8,4.8,7.8,9.7S168.9,34.1,163.4,34.1L163.4,34.1z
			 M193.9,26.5c0,3.4-0.2,7.4-6,7.4s-6-4-6-7.4V11.6h-4.5V28c0,6.6,4.2,9.8,10.5,9.8s10.5-3.2,10.5-9.8V11.6h-4.5L193.9,26.5z
			 M217.6,30.4L217.6,30.4l-11.7-18.8h-4.7v25.6h4.3V18.4h0.1l11.6,18.8h4.7V11.6h-4.3L217.6,30.4L217.6,30.4z M236.4,11.6h-10.6
			v25.6h10.6c7.9,0,11.3-5.7,11.3-12.8S244.2,11.6,236.4,11.6z M234.7,33.5h-4.4V15.3h4.4c7,0,8.5,4,8.5,9.1S241.7,33.5,234.7,33.5z
			 M257.1,11.6l-9.8,25.6h4.6l2.4-6.8h10.2l2.4,6.8h4.8l-9.9-25.6H257.1z M255.5,27l3.9-11h0.1l3.8,11H255.5z M267.4,15.4h8.1v21.8
			h4.5V15.4h8.1v-3.8h-20.7L267.4,15.4L267.4,15.4z M289.6,11.6h4.5v25.6h-4.5V11.6z M308.3,11c-7.7,0-12.3,6.1-12.3,13.4
			s4.6,13.4,12.3,13.4s12.3-6.1,12.3-13.4S316,11,308.3,11z M308.3,34.1c-5.5,0-7.8-4.8-7.8-9.7s2.3-9.7,7.8-9.7s7.8,4.8,7.8,9.7
			S313.8,34.1,308.3,34.1L308.3,34.1z M338.8,11.6v18.9h-0.1l-11.6-18.9h-4.7v25.6h4.3V18.4h0.1l11.6,18.8h4.7V11.6H338.8
			L338.8,11.6z M41.9,19.7c-0.6,0-0.7,0.6-0.7,1.1V21h1.4C42.5,20.1,42.4,19.7,41.9,19.7L41.9,19.7z M32.2,29.3
			c0.6,0,0.8-0.4,0.8-1.3c0-0.8-0.1-1.4-0.8-1.4s-0.8,0.6-0.8,1.4C31.4,28.9,31.6,29.3,32.2,29.3z M18.9,39.1l1,0.2l0.3,0.1v9.5
			c0.3,0,1.2,0.3,1.5,0.3v-9.5l0.9,0.2l0.9,0.2l0.6,0.2v9h0.2c0.2,0,0.9,0.1,1.1,0v-8.7l0.9,0.2l0.9,0.2L28,41v8.1
			c0.3-0.1,0.9-0.2,1.2-0.2v-7.6l0.9,0.2l0.9,0.2l0.6,0.2v6.5c0.3-0.1,0.9-0.3,1.2-0.4v-5.9l0.9,0.2l1,0.2l0.6,0.2v4.2
			c0.3-0.1,0.9-0.3,1.2-0.4v-3.5l0.9,0.2l0.9,0.2l0.6,0.2L39,45c0.8-0.5,1.8-1.3,2.5-1.9l-24-5.2l-3.4,1.3l-4.3-0.7l-4.7,1.8
			l0.7,0.8l3.6-1.4v4.6c0.3,0.2,0.9,0.5,1.2,0.7v-5.3l2.9,0.5v6.6c0.4,0.2,1,0.5,1.4,0.7V40l2.1-0.9v9l1.4,0.4V39L18.9,39.1z"/>
		<path class="st0" d="M24.6,0C10.9,0.1-0.1,11.3,0,25.1c0,4.9,1.5,9.7,4.3,13.7L5,38.4v-2.7c0-0.5,0.5-0.5,0.5-0.2v2.1
			c0,0.5,0.5,0.6,0.5,0.1v-3.1c0-0.5,1.7-1.2,1.7-0.9v3.3c0,0.5,0.7,0.2,0.7-0.2v-3.5c0-0.3,2.1-0.9,2.1-0.6s0,3,0,3.3s1,0.1,1-0.2
			v-3.3c0.9-0.2,1.7-0.3,2.6-0.2V36c0,0.3,1,0.2,1-0.1v-3.3c0.9-0.1,1.8-0.1,2.6,0.2v3c0,0.3,0.8,0.5,0.8,0v-2.8
			c0.1-0.2,1.6,0.5,1.9,0.2c0,0,0.2-0.5-1-0.9c-6.4-1.7-10.9,0-12.8,1c-0.1,0.1-0.6,0.3-1,0.5s-0.7,0.5-0.7,0.4
			c0.2-0.9-0.1-0.9,1.4-1.7c4-2.1,9-2.3,13.8-1.1c1.1,0.3,1.3,0.1,1.3-0.2c0-0.4,0-0.5-0.8-0.8c-1.6-0.5-8.7-2.2-15,1.3
			c-0.2,0.1-0.2-0.3,0-0.6c0.3-0.3,0.7-0.5,1.1-0.7v-0.3l-0.4-0.4v-0.3C9.9,27.4,16,27.1,19,28c1,0.3,1.8,0.4,1.8,0.2
			c0-0.5-1.8-1-2.3-1.2c-3.7-0.7-7.5-0.4-11,0.9c-0.5,0.2-0.8,0.3-0.8,0.2s0.3-0.6,0.5-0.8c0.6-0.4,0.6-0.8,0.6-1
			c0-0.2,0-0.5,0.1-0.7c1-2.1,2.5-3.8,4.5-5c0.2-0.5,0.5-1,0.9-1.4V18c-0.1-0.3-0.2-0.6-0.4-0.8c-0.1-0.1-0.1-0.3,0-0.4
			c0.7-0.9,1.2-1.4,1.2-1.7s0.1-2.9,0.4-2.9s0.4,2.5,0.4,3s0.7,0.9,1.2,1.6c0.1,0.1,0,0.4,0,0.4c-0.2,0.2-0.3,0.5-0.4,0.8v1.3
			c0.4,0.4,0.7,0.8,0.9,1.4c2.3,1.4,4,3.7,4.6,6.4c0.8,0.6,1.4,1.4,1.8,2.2c0,0.2,0,0.4,0,0.6c-0.1,0.3-0.2,0.5-0.5,0.7v0.7
			c0.8,0.5,1.5,1.2,2,1.9c0.1,0.2-0.1,1.2-0.1,1.2s-0.3,0.6-0.5,1.1c0,0.6,0,1.1,0,1.7l19,4.5c9.3-10.1,8.5-25.9-1.6-35.1
			C36.8,2.3,30.8,0,24.6,0z"/>
	</g>
	<g>
		<path class="st0" d="M24.3,85.4C24.3,100,4.4,104.9,4,123v0.3H24v1.6H2.4v-1.1c0-19.6,20.2-24.1,20.2-38.2c0-6.6-2.1-12-9.4-12
			c-7,0-9.3,5.7-9.3,12v2.8H2.4v-2.8C2.4,78.3,5.3,72,13.3,72C21.6,72,24.3,78,24.3,85.4z"/>
		<path class="st0" d="M30.1,85.2c0-7.4,3.2-13.3,11.2-13.3s11.2,5.8,11.2,13.3v26.7c0,7.3-3.2,13.3-11.2,13.3s-11.2-5.9-11.2-13.3
			V85.2z M31.7,111.9c0,6.5,2.5,11.8,9.5,11.8s9.5-5.3,9.5-11.8V85.2c0-6.4-2.5-11.7-9.5-11.7s-9.5,5.3-9.5,11.7V111.9z"/>
		<path class="st0" d="M80.2,85.4c0,14.6-19.9,19.5-20.3,37.6v0.3h19.9v1.6H58.3v-1.1c0-19.6,20.2-24.1,20.2-38.2
			c0-6.6-2.1-12-9.4-12c-7,0-9.3,5.7-9.3,12v2.8h-1.6v-2.8c0-7.3,2.8-13.6,10.9-13.6C77.5,72,80.2,78,80.2,85.4z"/>
		<path class="st0" d="M86,85.2C86,77.8,89.2,72,97.2,72s11.2,5.8,11.2,13.3v26.7c0,7.3-3.2,13.3-11.2,13.3S86,119.3,86,111.9V85.2z
			 M87.7,111.9c0,6.5,2.5,11.8,9.5,11.8s9.5-5.3,9.5-11.8V85.2c0-6.4-2.5-11.7-9.5-11.7s-9.5,5.3-9.5,11.7V111.9z"/>
		<path class="st0" d="M137,71.7c8,0,12.1,4.8,12.1,13.2v1.7h-7.8v-2.2c0-3.7-1.5-5.2-4.1-5.2s-4.1,1.4-4.1,5.2
			c0,10.8,16.1,12.8,16.1,27.8c0,8.4-4.2,13.2-12.3,13.2s-12.3-4.8-12.3-13.2V109h7.8v3.8c0,3.8,1.7,5.1,4.3,5.1s4.3-1.3,4.3-5.1
			c0-10.8-16.1-12.8-16.1-27.8C124.9,76.5,129,71.7,137,71.7z"/>
		<path class="st0" d="M151.6,72.3h25.5v7.5h-8.6v45h-8.2v-45h-8.6V72.3z"/>
		<path class="st0" d="M207.4,124.8H199l-1.4-9.5h-10.1l-1.4,9.5h-7.6l8.4-52.5H199L207.4,124.8z M188.5,108.2h7.9l-4-26.5
			L188.5,108.2z"/>
		<path class="st0" d="M208.8,72.3h25.5v7.5h-8.6v45h-8.3v-45h-8.6V72.3z"/>
		<path class="st0" d="M246.1,94.5h11.3v7.5h-11.3v15.4h14.2v7.5h-22.5V72.3h22.5v7.5h-14.2V94.5z"/>
		<path class="st0" d="M301.8,84.4v1.9c0,5.4-1.6,8.8-5.3,10.6c4.4,1.7,6.2,5.7,6.2,11.2v4.3c0,8.1-4.3,12.4-12.5,12.4h-13V72.3
			h12.4C298.1,72.3,301.8,76.3,301.8,84.4z M285.4,79.8v13.9h3.2c3.1,0,4.9-1.3,4.9-5.6v-2.9c0-3.8-1.3-5.4-4.2-5.4H285.4z
			 M285.4,101.2v16.1h4.7c2.8,0,4.3-1.3,4.3-5.2v-4.6c0-4.9-1.6-6.4-5.3-6.4H285.4z"/>
		<path class="st0" d="M315.4,72.3v40.5c0,3.8,1.6,5.1,4.3,5.1s4.3-1.4,4.3-5.1V72.3h7.8v40c0,8.4-4.2,13.2-12.3,13.2
			s-12.3-4.8-12.3-13.2v-40H315.4z"/>
		<path class="st0" d="M348.5,71.7c8,0,12.1,4.8,12.1,13.2v1.7h-7.8v-2.2c0-3.7-1.5-5.2-4.1-5.2s-4.1,1.4-4.1,5.2
			c0,10.8,16.1,12.8,16.1,27.8c0,8.4-4.2,13.2-12.3,13.2s-12.3-4.8-12.3-13.2V109h7.8v3.8c0,3.8,1.7,5.1,4.3,5.1s4.3-1.3,4.3-5.1
			c0-10.8-16.1-12.8-16.1-27.8C336.4,76.5,340.5,71.7,348.5,71.7z"/>
		<path class="st0" d="M365.5,72.3h8.3v52.5h-8.3V72.3z"/>
		<path class="st0" d="M387.1,86.8v38h-7.4V72.3H390l8.5,31.4V72.3h7.3v52.5h-8.5L387.1,86.8z"/>
		<path class="st0" d="M420,94.5h11.3v7.5H420v15.4h14.2v7.5h-22.5V72.3h22.5v7.5H420V94.5z"/>
		<path class="st0" d="M450.4,71.7c8,0,12.1,4.8,12.1,13.2v1.7h-7.8v-2.2c0-3.7-1.5-5.2-4.1-5.2s-4.1,1.4-4.1,5.2
			c0,10.8,16.1,12.8,16.1,27.8c0,8.4-4.2,13.2-12.3,13.2s-12.3-4.8-12.3-13.2V109h7.8v3.8c0,3.8,1.7,5.1,4.3,5.1s4.3-1.3,4.3-5.1
			c0-10.8-16.1-12.8-16.1-27.8C438.3,76.5,442.4,71.7,450.4,71.7z"/>
		<path class="st0" d="M478.5,71.7c8,0,12.1,4.8,12.1,13.2v1.7h-7.8v-2.2c0-3.7-1.5-5.2-4.1-5.2s-4.1,1.4-4.1,5.2
			c0,10.8,16.1,12.8,16.1,27.8c0,8.4-4.2,13.2-12.3,13.2s-12.3-4.8-12.3-13.2V109h7.8v3.8c0,3.8,1.7,5.1,4.3,5.1s4.3-1.3,4.3-5.1
			c0-10.8-16.1-12.8-16.1-27.8C466.3,76.5,470.5,71.7,478.5,71.7z"/>
		<path class="st0" d="M0,134.3h25.5v7.5h-8.6v45H8.6v-45H0V134.3z"/>
		<path class="st0" d="M55.8,186.8h-8.3l-1.4-9.5H35.9l-1.4,9.5h-7.6l8.4-52.5h12.1L55.8,186.8z M37,170.2h7.9l-4-26.5L37,170.2z"/>
		<path class="st0" d="M87.1,134.3l-8.6,25.5l9.2,27H79l-6.7-20.8l-6.8,20.8h-7.7l9.2-27l-8.6-25.5h8.5l6.2,19.3l6.4-19.3H87.1z"/>
		<path class="st0" d="M127.4,167.3v7c0,8.4-4.2,13.2-12.3,13.2s-12.3-4.8-12.3-13.2v-27.3c0-8.4,4.2-13.2,12.3-13.2
			s12.3,4.8,12.3,13.2v5.1h-7.8v-5.6c0-3.7-1.6-5.2-4.3-5.2s-4.3,1.4-4.3,5.2v28.3c0,3.8,1.7,5.1,4.3,5.1s4.3-1.3,4.3-5.1v-7.5
			H127.4z"/>
		<path class="st0" d="M132.4,134.3h8.3v45h13.6v7.5h-21.8V134.3z"/>
		<path class="st0" d="M157.9,134.3h8.3v52.5h-8.3V134.3z"/>
		<path class="st0" d="M189.6,171.6l5.6-37.3h11.5v52.5h-7.8v-37.6l-5.7,37.6h-7.8l-6.1-37.1v37.1H172v-52.5h11.5L189.6,171.6z"/>
		<path class="st0" d="M239.4,186.8h-8.3l-1.4-9.5h-10.1l-1.4,9.5h-7.6l8.4-52.5H231L239.4,186.8z M220.6,170.2h7.9l-4-26.5
			L220.6,170.2z"/>
		<path class="st0" d="M240.8,134.3h25.5v7.5h-8.6v45h-8.3v-45h-8.6V134.3z"/>
		<path class="st0" d="M278.2,156.5h11.3v7.5h-11.3v15.4h14.2v7.5h-22.5v-52.5h22.5v7.5h-14.2V156.5z"/>
		<path class="st0" d="M309.1,134.3h8.3v52.5h-8.3V134.3z"/>
		<path class="st0" d="M330.7,148.8v38h-7.4v-52.5h10.3l8.5,31.4v-31.4h7.3v52.5H341L330.7,148.8z"/>
		<path class="st0" d="M355.4,134.3h13c8.2,0,12.3,4.6,12.3,13v26.5c0,8.4-4,13-12.3,13h-13V134.3z M363.7,141.8v37.5h4.6
			c2.6,0,4.2-1.3,4.2-5.1v-27.3c0-3.8-1.6-5.1-4.2-5.1H363.7z"/>
		<path class="st0" d="M394.3,156.5h11.3v7.5h-11.3v15.4h14.2v7.5H386v-52.5h22.5v7.5h-14.2V156.5z"/>
		<path class="st0" d="M441.1,134.3l-8.6,25.5l9.2,27H433l-6.7-20.8l-6.8,20.8h-7.7l9.2-27l-8.6-25.5h8.5l6.2,19.3l6.4-19.3H441.1z"
			/>
	</g>
</g>
</svg>
