<svg id="Layer_1" xmlns="http://www.w3.org/2000/svg" viewBox="0 0 644.4 238.6">
  <style>.st0{fill:#5fc2ff}.st1{fill:#fff}</style>
  <path class="st0" d="M150.1 0C67.2 0 0 67.2 0 150.1c0 33.1 10.7 63.7 28.8 88.5h242.5c18.1-24.8 28.8-55.4 28.8-88.5C300.2 67.2 233 0 150.1 0z"/>
  <path class="st1" d="M162.3 97.7c0 15.1-19 20.4-19.2 35.8v.6h18.7v3.1h-22.2v-2.5c0-18.5 19.2-22.5 19.2-36.9 0-6.1-2-10.3-8-10.3-5.8 0-7.9 4.5-7.9 10.1v3.6h-3.3v-3.4c0-7.6 3.2-13.5 11.3-13.5 8.2.1 11.4 5.8 11.4 13.4zM169.2 97.6c0-7.7 3.5-13.3 11.5-13.3s11.5 5.5 11.5 13.3v26.8c0 7.6-3.5 13.3-11.5 13.3s-11.5-5.6-11.5-13.3V97.6zm3.4 27c0 5.8 2.3 10 8.1 10s8.1-4.2 8.1-10V97.4c0-5.7-2.3-9.9-8.1-9.9s-8.1 4.2-8.1 9.9v27.2zM209.4 90.7c-1.9 2.5-4.6 4.1-8.2 4.4v-3c5.2-.4 7.6-3.4 8.9-7.3h2.7v52.6h-3.4V90.7zM245.5 97.1v1.6c0 5.4-2 9.7-7 11 5.1 1.5 7 5.8 7 11.2v3.8c0 7.7-3.9 13-11.9 13-8.1 0-11.9-5.2-11.9-13V121c0-5.5 1.8-9.7 7-11.2-5.1-1.4-7-5.5-7-11v-1.6c0-7.8 4-12.7 11.9-12.7 7.9-.1 11.9 4.8 11.9 12.6zm-20.4.1v2.2c0 5.9 2.9 9 8.5 9s8.5-3.1 8.5-9v-2.2c0-6.1-2.9-9.7-8.5-9.7s-8.5 3.5-8.5 9.7zm0 23.5v4c0 6.1 2.8 9.9 8.5 9.9s8.4-3.8 8.5-9.9v-4c0-6.1-2.8-9.2-8.5-9.2-5.8 0-8.5 3.1-8.5 9.2zM276.9 84.2c8 0 12.1 4.8 12.1 13.2V99h-7.8v-2.2c0-3.8-1.5-5.2-4.1-5.2-2.6 0-4.1 1.4-4.1 5.2 0 10.8 16.1 12.8 16.1 27.8 0 8.4-4.2 13.2-12.3 13.2s-12.3-4.8-12.3-13.2v-3.2h7.8v3.7c0 3.8 1.6 5.1 4.3 5.1s4.3-1.4 4.3-5.1c0-10.8-16.1-12.8-16.1-27.8-.1-8.3 4-13.1 12.1-13.1zM292.9 84.8h25.5v7.5h-8.6v45h-8.2v-45H293v-7.5zM347.4 137.3H339l-1.4-9.5h-10.1l-1.4 9.5h-7.6l8.4-52.5H339l8.4 52.5zm-18.9-16.6h7.9l-4-26.5-3.9 26.5zM347.4 84.8h25.5v7.5h-8.6v45h-8.2v-45h-8.6v-7.5zM386.3 106.9h11.3v7.5h-11.3v15.4h14.2v7.5H378V84.8h22.5v7.5h-14.2v14.6zM444.9 96.9v1.9c0 5.4-1.6 8.8-5.3 10.6 4.4 1.7 6.1 5.7 6.1 11.2v4.3c0 8.1-4.3 12.4-12.5 12.4h-13V84.8h12.4c8.7 0 12.3 4 12.3 12.1zm-16.4-4.6v13.9h3.2c3.1 0 4.9-1.4 4.9-5.5v-2.9c0-3.7-1.3-5.4-4.2-5.4h-3.9zm0 21.4v16.1h4.7c2.8 0 4.3-1.3 4.3-5.2V120c0-4.9-1.6-6.4-5.3-6.4h-3.7zM460.1 84.8v40.5c0 3.8 1.6 5.1 4.3 5.1s4.3-1.3 4.3-5.1V84.8h7.8v40c0 8.4-4.2 13.2-12.3 13.2s-12.3-4.8-12.3-13.2v-40h8.2zM494.7 84.2c8 0 12.1 4.8 12.1 13.2V99H499v-2.2c0-3.8-1.5-5.2-4.1-5.2-2.6 0-4.1 1.4-4.1 5.2 0 10.8 16.1 12.8 16.1 27.8 0 8.4-4.2 13.2-12.3 13.2s-12.3-4.8-12.3-13.2v-3.2h7.8v3.7c0 3.8 1.6 5.1 4.3 5.1s4.3-1.4 4.3-5.1c0-10.8-16.1-12.8-16.1-27.8-.1-8.3 4-13.1 12.1-13.1zM513.1 84.8h8.2v52.5h-8.2V84.8zM536.2 99.3v38h-7.4V84.8h10.3l8.5 31.4V84.8h7.3v52.5h-8.5l-10.2-38zM570.6 106.9H582v7.5h-11.3v15.4h14.2v7.5h-22.5V84.8h22.5v7.5h-14.2v14.6zM602.6 84.2c8 0 12.1 4.8 12.1 13.2V99h-7.8v-2.2c0-3.8-1.5-5.2-4.1-5.2-2.6 0-4.1 1.4-4.1 5.2 0 10.8 16.1 12.8 16.1 27.8 0 8.4-4.2 13.2-12.3 13.2s-12.3-4.8-12.3-13.2v-3.2h7.8v3.7c0 3.8 1.6 5.1 4.3 5.1s4.3-1.4 4.3-5.1c0-10.8-16.1-12.8-16.1-27.8-.1-8.3 4.1-13.1 12.1-13.1zM632.1 84.2c8 0 12.1 4.8 12.1 13.2V99h-7.8v-2.2c0-3.8-1.5-5.2-4.1-5.2-2.6 0-4.1 1.4-4.1 5.2 0 10.8 16.1 12.8 16.1 27.8 0 8.4-4.2 13.2-12.3 13.2s-12.3-4.8-12.3-13.2v-3.2h7.8v3.7c0 3.8 1.6 5.1 4.3 5.1s4.3-1.4 4.3-5.1c0-10.8-16.1-12.8-16.1-27.8 0-8.3 4.1-13.1 12.1-13.1zM137.2 154.8h25.5v7.5h-8.6v45h-8.2v-45h-8.6v-7.5zM191.7 207.3h-8.3l-1.4-9.5h-10.1l-1.4 9.5h-7.6l8.4-52.5h12.1l8.3 52.5zm-18.9-16.6h7.9l-4-26.5-3.9 26.5zM224.5 154.8l-8.6 25.5 9.2 27h-8.7l-6.8-20.8-6.8 20.8h-7.7l9.2-27-8.6-25.5h8.5l6.2 19.3 6.4-19.3h7.7zM267.8 187.7v7c0 8.4-4.2 13.2-12.3 13.2s-12.3-4.8-12.3-13.2v-27.3c0-8.4 4.2-13.2 12.3-13.2s12.3 4.8 12.3 13.2v5.1H260v-5.6c0-3.8-1.6-5.2-4.3-5.2-2.6 0-4.3 1.4-4.3 5.2v28.3c0 3.8 1.6 5.1 4.3 5.1 2.6 0 4.3-1.3 4.3-5.1v-7.5h7.8zM274.3 154.8h8.2v45h13.6v7.5h-21.8v-52.5zM301.2 154.8h8.2v52.5h-8.2v-52.5zM334.5 192.1l5.6-37.3h11.5v52.5h-7.8v-37.6l-5.7 37.6h-7.8l-6.1-37.1v37.1H317v-52.5h11.5l6 37.3zM385.8 207.3h-8.3l-1.4-9.5H366l-1.4 9.5H357l8.4-52.5h12.1l8.3 52.5zm-18.9-16.6h7.9l-4-26.5-3.9 26.5zM385.8 154.8h25.5v7.5h-8.6v45h-8.2v-45h-8.6v-7.5zM424.7 176.9H436v7.5h-11.3v15.4h14.2v7.5h-22.5v-52.5h22.5v7.5h-14.2v14.6zM458.7 154.8h8.2v52.5h-8.2v-52.5zM481.8 169.3v38h-7.4v-52.5h10.3l8.5 31.4v-31.4h7.3v52.5H492l-10.2-38zM507.9 154.8h13c8.2 0 12.3 4.6 12.3 13v26.5c0 8.4-4 13-12.3 13h-13v-52.5zm8.3 7.5v37.5h4.6c2.6 0 4.2-1.4 4.2-5.1v-27.3c0-3.8-1.6-5.1-4.2-5.1h-4.6zM548.3 176.9h11.3v7.5h-11.3v15.4h14.2v7.5H540v-52.5h22.5v7.5h-14.2v14.6zM596.7 154.8l-8.6 25.5 9.2 27h-8.7l-6.8-20.8-6.8 20.8h-7.7l9.2-27-8.6-25.5h8.5l6.2 19.3 6.4-19.3h7.7z"/>
  <g>
    <path class="st1" d="M211.8 52.5h4.6V30.2h8.3v-3.9h-21.2v3.9h8.3zM234.1 26.3h-4.9l-10 26.2h4.7l2.5-6.9h10.5l2.5 6.9h4.5l.3-.4-10.1-25.8zm-6.5 15.8l4-11.3h.1l3.9 11.3h-8z"/>
    <path class="st1" d="M249 52.5l6.6-10 6.5 10h5.6l-9.3-13.6 8.7-12.6H262l-6.2 9.2-6-9.2h-5.4l8.6 12.6-9 13.2.2.4zM315.7 22.7l-.2-.4-.3.4z"/>
    <g>
      <path class="st1" d="M277.5 52.5h4.6V40.8H294v-3.7h-11.9v-6.9h13.5v-3.9h-18.1zM308.2 25.7c-7.9 0-12.6 6.2-12.6 13.7 0 7.5 4.7 13.7 12.6 13.7 7.9 0 12.6-6.2 12.6-13.7 0-7.5-4.7-13.7-12.6-13.7zm0 23.6c-5.6 0-8-4.9-8-9.9s2.4-9.9 8-9.9 8 4.9 8 9.9-2.4 9.9-8 9.9zM339.3 41.5c0 3.5-.2 7.6-6.2 7.6-5.9 0-6.2-4.1-6.2-7.6V26.3h-4.6v16.8c0 6.7 4.3 10 10.7 10 6.4 0 10.7-3.3 10.7-10V26.3h-4.6v15.2zM363.7 45.6h-.1l-11.9-19.3h-4.9v26.2h4.4V33.2h.1l11.9 19.3h4.8V26.3h-4.3zM382.9 26.3H372v26.2h10.8c8 0 11.5-5.9 11.5-13.1.1-7.2-3.4-13.1-11.4-13.1zm-1.8 22.4h-4.5V30h4.5c7.2 0 8.7 4.1 8.7 9.3 0 5.3-1.5 9.4-8.7 9.4zM404.1 26.3l-10 26.2h4.7l2.5-6.9h10.5l2.5 6.9h4.9l-10.1-26.2h-5zm-1.7 15.8l4-11.3h.1l3.9 11.3h-8zM414.6 30.2h8.3v22.3h4.6V30.2h8.3v-3.9h-21.2zM437.4 26.3h4.6v26.2h-4.6zM456.5 25.7c-7.9 0-12.6 6.2-12.6 13.7 0 7.5 4.7 13.7 12.6 13.7 7.9 0 12.6-6.2 12.6-13.7 0-7.5-4.7-13.7-12.6-13.7zm0 23.6c-5.6 0-8-4.9-8-9.9s2.4-9.9 8-9.9 8 4.9 8 9.9-2.4 9.9-8 9.9zM487.7 26.3v19.3h-.1l-11.9-19.3h-4.8v26.2h4.3V33.2h.2l11.8 19.3h4.9V26.3z"/>
    </g>
    <g>
      <path class="st1" d="M160.2 54.4l1 .2.3.1v9.7c.3 0 1.2.3 1.5.3V55l1 .2 1 .2.6.1v9.2h.2c.2 0 .9.1 1.1.1v-9l1 .2 1 .2.7.1v8.3c.3 0 .9-.2 1.2-.2v-7.8l1 .2.9.2.6.2V64l1.2-.4v-6l1 .2 1 .2.7.2v4.3l1.2-.4v-3.6l1 .2 1 .2.7.2v1.5c.8-.5 1.8-1.3 2.6-1.9l-24.6-5.3-3.4 1.4-4.4-.7-4.8 1.8c.2.3.5.5.7.8l3.7-1.4V60c.3.2.9.5 1.3.7v-5.4l3 .5v6.7c.4.2 1.1.5 1.5.7v-7.6l2.1-.9v9.2c.3.1 1.1.3 1.5.4v-9.8l-.1-.1z"/>
      <path class="st1" d="M166.1 14.4c-13.9 0-25.2 11.4-25.2 25.4 0 5.3 1.6 10.2 4.4 14.3l.7-.3V51c0-.5.5-.5.5-.2V53c0 .5.5.6.5.1V50c0-.5 1.8-1.3 1.8-.9v3.4c0 .4.7.2.7-.2v-3.5c0-.3 2.1-.9 2.2-.6v3.4c0 .4 1.1.1 1.1-.2V48c0-.1 2.7-.4 2.7-.2v3.5c0 .3 1 .2 1-.1v-3.4c0-.2 2.7 0 2.7.2v3.1c0 .5.9.5.9 0v-2.9c.1-.2 1.7.5 1.9.2 0 0 .2-.5-1.1-.9-6.6-1.7-11.1 0-13.1 1.1-.1.1-.6.3-1 .5s-.7.5-.7.4c.2-.9-.1-.9 1.4-1.7 4-2.2 9.2-2.4 14.1-1.1 1.1.3 1.3.1 1.3-.2 0-.4 0-.6-.9-.8-1.6-.5-8.9-2.3-15.3 1.3-.2.1-.2-.3 0-.6.2-.2.6-.5 1.1-.7v-.3l-.4-.4v-.3c3.8-2.3 10-2.5 13.1-1.7 1 .3 1.8.4 1.8.2 0-.5-1.9-1.1-2.3-1.2-3.4-.8-7.8-.5-11.3 1-.5.2-.8.3-.8.2-.1-.1.3-.6.5-.8.6-.4.6-.9.6-1 0-.1 0-.5.1-.7 0 0 1.2-3 4.6-5.2 0 0 .3-.9.9-1.4v-1.3c0-.3-.4-.9-.4-.9s-.1-.2 0-.4c.7-1 1.2-1.4 1.2-1.8 0-.5.1-2.9.5-2.9.3 0 .4 2.6.4 3.1s.7.9 1.2 1.7c.1.1 0 .4 0 .4s-.4.5-.4.8v1.3c.7.5.9 1.4.9 1.4 4.3 2.8 4.6 6.5 4.7 6.5 1.2.8 1.8 2.3 1.8 2.3v.7c0 .3-.5.7-.5.7v.7c.8.5 1.8 1.6 2 2 .1.2-.1 1.2-.1 1.2s-.3.6-.5 1.1c-.1.1 0 1.7 0 1.7l19.5 4.6c4.1-4.5 6.6-10.5 6.6-17.2-.2-14-11.5-25.4-25.4-25.4z"/>
    </g>
  </g>
</svg>
